<?xml version="1.0" encoding="UTF-8" standalone="no"?>
<svg width="66px" height="112px" viewBox="0 0 66 112" version="1.1" xmlns="http://www.w3.org/2000/svg" xmlns:xlink="http://www.w3.org/1999/xlink">
    <!-- Generator: Sketch 3.7.2 (28276) - http://www.bohemiancoding.com/sketch -->
    <title>zc117</title>
    <desc>Created with Sketch.</desc>
    <defs></defs>
    <g id="Page-1" stroke="none" stroke-width="1" fill="none" fill-rule="evenodd" stroke-linecap="round" stroke-linejoin="round">
        <g id="zc117" transform="translate(2.000000, 2.000000)" stroke="#000000" stroke-width="4">
            <path d="M18.642,31.1944 L18.642,31.1944 C22.282,32.4464 24.236,36.4504 22.984,40.0904 L15.83,60.8944 C14.578,64.5344 10.574,66.4884 6.934,65.2364 C3.292,63.9844 1.338,59.9824 2.59,56.3404 L9.746,35.5364 C10.998,31.8964 15.002,29.9424 18.642,31.1944 L18.642,31.1944 Z" id="Stroke-618"></path>
            <path d="M47.6386,27.375 L47.6386,27.375 C42.5446,29.565 29.2226,44.657 26.4566,51.595 C24.5006,56.751 28.6246,63.749 37.7586,57.621 C40.9526,55.475 49.0066,49.401 56.0006,44.001" id="Stroke-619"></path>
            <path d="M18.7032,73.5154 L19.0392,73.6314 C22.5872,74.8514 26.4892,72.9454 27.7092,69.3974 L30.4532,61.4214 C27.2392,60.0114 25.1012,54.9954 26.4572,51.5954 C27.6472,48.6094 30.7912,44.1194 34.3932,39.7934 C33.6212,38.8654 32.6152,38.1154 31.3972,37.6974 L31.0632,37.5814 C27.5152,36.3614 23.6132,38.2654 22.3912,41.8134 L14.4712,64.8454 C13.2492,68.3934 15.1552,72.2954 18.7032,73.5154 L18.7032,73.5154 Z" id="Stroke-620"></path>
            <path d="M27.8956,72 L27.8956,73 C27.8956,76.866 31.1376,80 35.0036,80 C38.8696,80 42.0036,76.866 41.9956,73 L41.9876,56 L41.9956,101 C41.9956,104.866 45.1376,108 49.0036,108 C52.8696,108 55.9876,104.866 55.9876,101 L55.9996,44 L53.3116,46.218 L55.9996,44 C61.4056,40.218 61.9996,36.646 61.9996,30 L62.0136,30 C62.0136,20.584 54.0096,14 54.0096,14 L54.0096,14 L54.0096,5.978 C54.0096,2.676 51.3336,0 48.0316,0 L11.8696,0 C8.5696,0 6.0316,2.676 6.0096,5.978 L5.9876,14 L6.0096,14 C0.2336,21.702 0.0016,23.692 0.0016,38.006 C0.0016,46.312 2.6336,56.214 2.6336,56.214 L2.5896,56.34 C1.3376,59.982 3.2916,63.984 6.9336,65.238 C10.5736,66.49 14.5776,64.536 15.8296,60.894 L14.4696,64.844 C13.2496,68.394 15.1556,72.294 18.7036,73.516 L19.0376,73.63 C22.5876,74.852 26.4896,72.946 27.7096,69.398 L28.4476,67.25 L27.8956,72 L27.8956,72 Z" id="Stroke-621"></path>
        </g>
    </g>
</svg>